<svg width="442" xmlns="http://www.w3.org/2000/svg" height="589">
<g>
<g id="layer1">
<g style="stroke:#000;stroke-width:6;fill:#fff">
<path id="path2991" d="m 181.5455,168.8614 v 10 l -70,5 -70,5 c -10.8184,-1.5455 -22.2725,2.27255 -30,10 -7.72746,7.72745 -11.5455,19.1815 -10,30 1.309,9.16296 6.38199,17.7307 13.7868,23.2843 7.4048,5.55359 17.0502,8.02472 26.2132,6.71573 h 50 50 l -20,290 c 0,10.4719 4.31091,20.8794 11.7157,28.2842 7.40482,7.40491 17.8123,11.7158 28.2843,11.7158 10.472,0 20.8795,-4.31091 28.2843,-11.7158 7.40482,-7.40478 11.7157,-17.8123 11.7157,-28.2842 l 20,-140 20,140 c 0,10.4719 4.31091,20.8794 11.7157,28.2842 7.4048,7.40491 17.8123,11.7158 28.2843,11.7158 10.472,0 20.8794,-4.31091 28.2843,-11.7158 7.40479,-7.40478 11.7157,-17.8123 11.7157,-28.2842 l -20,-290 h 50 l 70,-50 c 10.0926,-5.36908 17.3637,-15.7375 18.9732,-27.0555 1.60965,-11.318 -2.48251,-23.3024 -10.6781,-31.2724 -6.07425,-5.90695 -14.2634,-9.59225 -22.7129,-10.2212 -8.44931,-0.628906 -17.0939,1.80337 -23.9756,6.74597 l -51.6067,36.8031 -70,-5 v -10 c 21.1616,-4.8425 40.1305,-18.6054 51.2994,-37.2203 11.169,-18.615 14.3862,-41.8288 8.70059,-62.7797 -5.62631,-20.7323 -19.6606,-38.7866 -37.5808,-50.6337 -17.9201,-11.8471 -39.5104,-17.6542 -60.9907,-17.9377 -21.9713,-0.289993 -44.2114,5.20282 -62.7053,17.0686 -18.4939,11.8658 -33.0058,30.2865 -38.7233,51.5028 -5.64581,20.9504 -2.41077,44.1426 8.75269,62.7484 11.1635,18.6057 30.1048,32.3742 51.2473,37.2516"/>
<path id="path2995" d="m 161.5455,68.8614 c -5.44415,-0.984406 -11.3213,0.854614 -15.2334,4.76663 -3.91202,3.91202 -5.75104,9.7892 -4.76663,15.2334 17.8905,20.5739 139.78,20.0164 160,0 0.984406,-5.44417 -0.854614,-11.3213 -4.76663,-15.2334 -3.91205,-3.91202 -9.78925,-5.75104 -15.2334,-4.76663 h -120"/>
<path id="path3000" d="m 136.5455,38.1471 l 170.7143,.1429 c 1.18698,-1.05849 2.71289,-1.73085 4.29504,-1.89252 1.58215,-0.161652 3.21252,0.188187 4.58899,0.984741 1.16885,0.676346 2.1521,1.66975 2.81644,2.84544 0.664307,1.17567 1.0079,2.53053 0.984192,3.88071 l 45.2137,-8.1284 -21.1205,-17.2244 -23.9701,26.732 25.4932,28.4004 -15.3708,16.6991 -10.6147,-43.8928 c -0.157043,0.896484 -0.551758,1.75023 -1.13303,2.45061 -0.56131,0.676392 -1.29501,1.20845 -2.1124,1.53174 -0.817352,0.323288 -1.71652,0.437103 -2.58868,0.327682 l 2.8478,4.26 -190.2185,-1.3042 10.1751,-15.813"/>
<g style="fill-rule:evenodd;stroke-linecap:round;stroke-dashoffset:23.2">
<path id="path3772" d="m 201.5455,88.8614 a 7.14626,7.14626 0 1,1 -14.2925,0"/>
<path id="path3774" d="m 249.5455,88.8614 a 7.14626,7.14626 0 1,1 -14.2925,0"/>
</g>
<path id="path3833" d="m 180.7229,179.0752 l 40.7917,66.2127 -9.459,7.0942 -43.7477,-72.7157 12.4149,-.5912"/>
<path id="path3829" d="m 262.8595,179.44 l -126.5135,148.9785 17.1443,.5912 122.9664,-150.1609 -13.5973,.5912"/>
<path id="path3776" d="m 136.1883,328.8614 l 171.4285,.3571 1.0715,19.6429 h -173.929 l 1.4286,-20"/>
</g>
<g style="fill:#e1e1e1" id="g3790">
<g style="fill:#fff;stroke:#000;stroke-width:6" id="g3816">
<path style="stroke-opacity:.451" id="path3780" d="m 151.105,330.1337 l 3.4695,17.4202 -9.4502,-18.8369 11.1541,-10.2681 -9.27,-17.722 c -0.927185,-0.037994 -1.84109,-0.355316 -2.59235,-0.899994 -0.751282,-0.544708 -1.33697,-1.31467 -1.66132,-2.18408 -0.51062,-1.36862 -0.34256,-2.97232 0.440674,-4.20532 l 8.861,-4.635 c 1.37149,0.032623 2.71493,0.700623 3.56863,1.77451 0.611938,0.769684 0.973206,1.73547 1.01675,2.7178 0.043518,0.982361 -0.230957,1.97629 -0.7724,2.79709 l 9.27,17.722 15.6089,-2.5221 9.27,17.7219 -12.3304,-12.7852 -7.1892,6.2208 36.3558,71.1132 .2046,11.1785 -9.0655,-6.5435 -36.8211,-70.2022 -10.0675,2.1383"/>
<path id="path3794" d="m 155.8693,296.092 l -6.5435,9.0655 2.3175,4.4305 6.5435,-9.0655 -2.3175,-4.4305"/>
<path id="path3798" d="m 160.5043,304.953 l -6.5434,9.0655 2.3175,4.4305 6.5434,-9.0655 -2.3175,-4.4305"/>
<path id="path3802" d="m 149.7894,306.0436 l 11.1785,-.2046 2.3175,4.4305 -11.1785,.2046 -2.3175,-4.4305"/>
<path id="path3806" d="m 156.2784,318.4489 l 8.861,-4.635"/>
<path id="path3810" d="m 156.2784,318.4489 l 8.861,-4.635"/>
<path id="path3812" d="m 147.0083,300.727 l 8.861,-4.635"/>
</g>
</g>
<g style="stroke:#000;stroke-width:6;fill:#fff">
<path id="path3825" d="m 160.8802,329.0929 l .8868,19.6096 24.8297,.2724 .2956,-20.1544 -26.0121,.2724"/>
<g style="stroke-linecap:round;stroke-dashoffset:23.2">
<path id="path3839" d="m 233.3055,82.7832 a 12.9062,30.5234 0 0,124 -0.509979,0"/>
<path id="path3843" d="m 179.3055,82.7832 a 12.9062,30.5234 0 0,124 -0.509979,0"/>
</g>
<path id="path3845" d="m 239.6444,403.0985 l 23.7801,-72.8622 c -2.14316,-0.098511 -4.30472,0.221893 -6.32712,0.937866 -2.93965,1.04074 -5.57497,2.92587 -7.50944,5.3718 l -22.1398,68.9463 12.1962,-2.3939"/>
<path id="path3849" d="m 301.6377,408.1927 l -22.6957,-74.3841 c 0.16394,-1.29221 0.923401,-2.49661 2.01886,-3.20139 1.09543,-0.704803 2.50629,-0.89682 3.75021,-0.510437 0.809326,0.251373 1.54404,0.738098 2.09109,1.38531 0.547058,0.647217 0.904633,1.45273 1.01776,2.2926 l 25.9778,76.9898 -12.1599,-2.5718"/>
<path id="path3855" d="m 261.6131,329.497 c 1.30191,-1.12979 2.95523,-1.84879 4.6694,-2.03058 1.71423,-0.181793 3.48157,0.174347 4.99152,1.00592 1.14502,-1.03348 2.6712,-1.63467 4.21344,-1.65973 1.54221,-0.025116 3.08716,0.526154 4.26511,1.52185 0.845581,0.714722 1.50201,1.65115 1.8855,2.68979 0.383453,1.03857 0.493134,2.17694 0.314911,3.26962 1.49805,1.69748 2.36072,3.94296 2.38458,6.20679 0.023804,2.26385 -0.791382,4.52704 -2.2533,6.25568 -1.40265,1.65845 -3.38815,2.81378 -5.52307,3.21375 -2.13492,0.399902 -4.40405,0.041565 -6.3118,-0.996826 -1.5863,1.09497 -3.59891,1.55395 -5.50308,1.25507 -1.90418,-0.298889 -3.67932,-1.35248 -4.85388,-2.8808 -0.898438,-1.1691 -1.44617,-2.60425 -1.55518,-4.07468 -0.108978,-1.47043 0.221283,-2.97064 0.937561,-4.2594 -0.636353,-1.62051 -0.757721,-3.4389 -0.342285,-5.12961 0.415405,-1.6907 1.36563,-3.24579 2.68057,-4.38684"/>
<path id="path3859" d="m 306.9028,38.4424 l 6.2075,12.1193 5.0251,-11.5281"/>
<path id="path3863" d="m 320.2044,44.6499 h -4.4339"/>
<g style="stroke-linecap:round;stroke-dashoffset:23.2;fill-rule:evenodd">
<path id="path3034" d="m 193.7371,86.1806 a 2.55876,2.26316 0 1,1 -0.006592,-0.157898"/>
<path id="path3804" d="m 241.7371,86.1806 a 2.55876,2.26316 0 1,1 -0.006592,-0.157898"/>
</g>
</g>
</g>
</g>
</svg>
